<svg width="116" height="26" viewBox="0 0 116 26" fill="none" xmlns="http://www.w3.org/2000/svg">
<path d="M32.8576 14.1717L24.4945 14.1456C24.4945 15.1704 24.7637 15.9868 25.3021 16.5947C25.8579 17.1852 26.5961 17.4805 27.5167 17.4805C28.6457 17.4805 29.766 17.0723 30.8776 16.256L32.2324 18.21L31.5289 18.7832C30.2089 19.7385 28.6804 20.2161 26.9435 20.2161C25.0329 20.2161 23.5305 19.6343 22.4362 18.4705C21.342 17.3068 20.7949 15.7175 20.7949 13.7027C20.7949 11.6879 21.368 10.0552 22.5144 8.80467C23.6781 7.53673 25.1719 6.90276 26.9956 6.90276C28.7672 6.90276 30.1828 7.51067 31.2423 8.72651C32.3192 9.92497 32.8576 11.5229 32.8576 13.5204V14.1717ZM27.178 9.19547C26.5006 9.19547 25.9187 9.42995 25.4324 9.89891C24.9634 10.3679 24.6682 11.0105 24.5466 11.8269H29.4967C29.4967 11.0105 29.2883 10.3679 28.8715 9.89891C28.4546 9.42995 27.8901 9.19547 27.178 9.19547Z" fill="#817D63"/>
<path d="M35.6875 19.9295V1.50967H39.4913V19.9295H35.6875Z" fill="#817D63"/>
<path d="M41.9125 13.5204C41.9125 11.5577 42.5204 9.95971 43.7362 8.72651C44.9694 7.47593 46.55 6.85065 48.478 6.85065C50.4233 6.85065 52.0039 7.47593 53.2197 8.72651C54.4529 9.95971 55.0695 11.5577 55.0695 13.5204C55.0695 15.4831 54.4616 17.0897 53.2458 18.3403C52.0299 19.5908 50.4494 20.2161 48.504 20.2161C46.5761 20.2161 44.9955 19.5908 43.7623 18.3403C42.5291 17.0897 41.9125 15.4831 41.9125 13.5204ZM48.504 9.50811C47.6356 9.50811 46.9495 9.87286 46.4458 10.6024C45.9595 11.3145 45.7163 12.2872 45.7163 13.5204C45.7163 14.7709 45.9595 15.761 46.4458 16.4905C46.9495 17.2026 47.6356 17.5587 48.504 17.5587C49.3377 17.5587 50.0064 17.1939 50.5101 16.4644C51.0138 15.7349 51.2657 14.7536 51.2657 13.5204C51.2657 12.2698 51.0225 11.2884 50.5362 10.5763C50.0499 9.86418 49.3725 9.50811 48.504 9.50811Z" fill="#817D63"/>
<path d="M60.3409 14.328C58.9166 13.5811 58.2045 12.4869 58.2045 11.0453C58.2045 9.7947 58.7082 8.79598 59.7156 8.04911C60.7404 7.28488 62.1038 6.90276 63.806 6.90276C64.4313 6.90276 65.1782 6.9896 66.0466 7.16329H70.3715V9.50811H68.4435C68.8604 10.116 69.0688 10.7326 69.0688 11.3579C69.0688 12.4522 68.5998 13.3554 67.6619 14.0675C66.724 14.7796 65.5429 15.1357 64.1186 15.1357C63.806 15.1357 63.5281 15.1183 63.2849 15.0836C63.0418 15.0488 62.7031 14.9794 62.2688 14.8751C61.6262 15.292 61.3049 15.6481 61.3049 15.9433C61.3049 16.1865 61.4699 16.3689 61.7999 16.4905L62.1125 16.5686L62.6336 16.6468L64.8742 16.8813C65.3779 16.9334 65.7774 16.9768 66.0727 17.0115C66.3679 17.0463 66.6979 17.0984 67.0627 17.1679C68.1569 17.3763 68.9907 17.8105 69.5638 18.4705C70.1544 19.1132 70.4496 19.9382 70.4496 20.9456C70.4496 22.5088 69.7549 23.742 68.3654 24.6452C66.9758 25.5484 65.0826 26 62.6857 26C61.0877 26 59.8111 25.7221 58.8558 25.1663C57.9179 24.6105 57.4489 23.8636 57.4489 22.9257C57.4489 21.6751 58.4563 20.468 60.4711 19.3042C59.4985 19.2174 58.7256 19.009 58.1524 18.679C57.5966 18.3316 57.3187 17.8974 57.3187 17.3763C57.3187 16.9421 57.5184 16.5165 57.9179 16.0997C58.3348 15.6828 59.0903 15.127 60.1846 14.4322L60.3409 14.328ZM63.806 8.90888C63.2328 8.90888 62.7639 9.10862 62.3991 9.50811C62.0517 9.89023 61.878 10.4026 61.878 11.0453C61.878 11.6706 62.0517 12.1829 62.3991 12.5824C62.7639 12.9645 63.2328 13.1556 63.806 13.1556C64.3792 13.1556 64.8395 12.9645 65.1868 12.5824C65.5342 12.2003 65.7079 11.6966 65.7079 11.0713C65.7079 10.4287 65.5342 9.9076 65.1868 9.50811C64.8395 9.10862 64.3792 8.90888 63.806 8.90888ZM66.6198 21.4667C66.6198 20.8588 66.3766 20.4245 65.8903 20.164C65.4039 19.9208 64.4747 19.7385 63.1026 19.6169C61.5393 20.3116 60.7577 21.1193 60.7577 22.0399C60.7577 22.5609 60.9922 22.9865 61.4612 23.3165C61.9301 23.6465 62.5554 23.8115 63.337 23.8115C64.2923 23.8115 65.0739 23.5857 65.6819 23.1341C66.3071 22.6999 66.6198 22.1441 66.6198 21.4667Z" fill="#817D63"/>
<path d="M84.0997 14.1717L75.7365 14.1456C75.7365 15.1704 76.0057 15.9868 76.5441 16.5947C77.0999 17.1852 77.8381 17.4805 78.7587 17.4805C79.8877 17.4805 81.008 17.0723 82.1196 16.256L83.4744 18.21L82.7709 18.7832C81.4509 19.7385 79.9224 20.2161 78.1855 20.2161C76.2749 20.2161 74.7725 19.6343 73.6782 18.4705C72.584 17.3068 72.0369 15.7175 72.0369 13.7027C72.0369 11.6879 72.6101 10.0552 73.7564 8.80467C74.9201 7.53673 76.4139 6.90276 78.2376 6.90276C80.0093 6.90276 81.4248 7.51067 82.4843 8.72651C83.5612 9.92497 84.0997 11.5229 84.0997 13.5204V14.1717ZM78.42 9.19547C77.7426 9.19547 77.1607 9.42995 76.6744 9.89891C76.2054 10.3679 75.9102 11.0105 75.7886 11.8269H80.7388C80.7388 11.0105 80.5303 10.3679 80.1135 9.89891C79.6966 9.42995 79.1321 9.19547 78.42 9.19547Z" fill="#817D63"/>
<path d="M86.9035 19.9295V7.18935H90.7333V19.9295H86.9035ZM86.9035 5.67824V1.50967H90.7333V5.67824H86.9035Z" fill="#817D63"/>
<path d="M105.192 14.1717L96.8287 14.1456C96.8287 15.1704 97.0979 15.9868 97.6363 16.5947C98.1921 17.1852 98.9303 17.4805 99.8509 17.4805C100.98 17.4805 102.1 17.0723 103.212 16.256L104.567 18.21L103.863 18.7832C102.543 19.7385 101.015 20.2161 99.2777 20.2161C97.3671 20.2161 95.8647 19.6343 94.7704 18.4705C93.6762 17.3068 93.129 15.7175 93.129 13.7027C93.129 11.6879 93.7022 10.0552 94.8486 8.80467C96.0123 7.53673 97.506 6.90276 99.3298 6.90276C101.101 6.90276 102.517 7.51067 103.577 8.72651C104.653 9.92497 105.192 11.5229 105.192 13.5204V14.1717ZM99.5122 9.19547C98.8348 9.19547 98.2529 9.42995 97.7666 9.89891C97.2976 10.3679 97.0023 11.0105 96.8808 11.8269H101.831C101.831 11.0105 101.622 10.3679 101.206 9.89891C100.789 9.42995 100.224 9.19547 99.5122 9.19547Z" fill="#817D63"/>
<path d="M107.996 19.9295V7.16329H111.643V9.14336C112.459 7.63226 113.727 6.8767 115.447 6.8767L115.916 6.90276V10.1334L115.499 10.1073C114.891 10.1073 114.292 10.2202 113.701 10.446C112.833 10.7934 112.208 11.3492 111.826 12.1135V19.9295H107.996Z" fill="#817D63"/>
<path d="M0.0838623 0.0142578C9.14154 -0.311944 11.8894 4.98018 11.4823 13.7325H7.81851C8.22559 5.08195 4.2565 2.85512 0.562788 2.85512L0.0838623 0.0142578Z" fill="#C60B0E"/>
<path d="M24.3441 0.0142578C15.2864 -0.311944 12.5386 4.98018 12.9457 13.7325H16.6095C16.2024 5.08195 20.1715 2.85512 23.8652 2.85512L24.3441 0.0142578Z" fill="#817D63"/>
</svg>
